<svg xmlns="http://www.w3.org/2000/svg" version="1.1" xmlns:xlink="http://www.w3.org/1999/xlink" xmlns:svgjs="http://svgjs.dev/svgjs" width="2000" height="1583" viewBox="0 0 2000 1583"><g transform="matrix(1,0,0,1,0.4103967168263125,0.6408906882591054)"><svg viewBox="0 0 312 247" data-background-color="#0a1627" preserveAspectRatio="xMidYMid meet" height="1583" width="2000" xmlns="http://www.w3.org/2000/svg" xmlns:xlink="http://www.w3.org/1999/xlink"><g id="tight-bounds" transform="matrix(1,0,0,1,-0.06402188782490725,-0.09999999999999432)"><svg viewBox="0 0 312.1280437756498 247.2" height="247.2" width="312.1280437756498"><g><svg viewBox="0 0 312.1280437756498 247.2" height="247.2" width="312.1280437756498"><g><svg viewBox="0 0 312.1280437756498 247.2" height="247.2" width="312.1280437756498"><g id="textblocktransform"><svg viewBox="0 0 312.1280437756498 247.2" height="247.2" width="312.1280437756498" id="textblock"><g><svg viewBox="0 0 312.1280437756498 247.2" height="247.2" width="312.1280437756498"><g transform="matrix(1,0,0,1,0,0)"><svg width="312.1280437756498" viewBox="4.49 -35.69 45.07 35.69" height="247.2" data-palette-color="#fe0039"><path d="M12.06 0L4.49 0 4.49-35.69 12.06-35.69 12.06 0ZM28.61-29.49L28.61-19.85 31.05-19.85Q34.64-19.85 36.35-21.04 38.06-22.24 38.06-24.8L38.06-24.8Q38.06-27.34 36.31-28.42 34.57-29.49 30.91-29.49L30.91-29.49 28.61-29.49ZM32.64-13.7L28.61-13.7 28.61 0 21.04 0 21.04-35.69 31.44-35.69Q38.72-35.69 42.21-33.04 45.7-30.4 45.7-25L45.7-25Q45.7-21.85 43.97-19.4 42.23-16.94 39.06-15.55L39.06-15.55Q47.12-3.52 49.56 0L49.56 0 41.16 0 32.64-13.7Z" opacity="1" transform="matrix(1,0,0,1,0,0)" fill="#fe0039" class="wordmark-text-0" data-fill-palette-color="primary" id="text-0"></path></svg></g></svg></g></svg></g></svg></g></svg></g><defs></defs></svg><rect width="312.1280437756498" height="247.2" fill="none" stroke="none" visibility="hidden"></rect></g></svg></g></svg>